<?xml version="1.0" encoding="utf-8"?>
<!-- Generator: Adobe Illustrator 25.3.1, SVG Export Plug-In . SVG Version: 6.00 Build 0)  -->
<svg version="1.1" id="Layer_1" xmlns="http://www.w3.org/2000/svg" xmlns:xlink="http://www.w3.org/1999/xlink" x="0px" y="0px"
	 viewBox="0 0 500 187.36" style="enable-background:new 0 0 500 187.36;" xml:space="preserve">
<g>
	<path d="M128.26,118.37V122h-18.29V50.82h18.29v20.89c4.36-2.81,8.94-3.95,13.3-3.95c14.55,0,26.6,11.85,26.6,27.22
		c0,15.59-12.05,27.33-26.6,27.33C137.2,122.31,132.63,121.17,128.26,118.37z M150.19,95.3c0-6.34-5.09-11.22-11.12-11.22
		c-6.13,0-11.01,4.88-11.01,11.22c0,6.23,4.88,11.22,11.01,11.22C145.1,106.52,150.19,101.53,150.19,95.3z"/>
	<path d="M206.2,85.74c-10.81,0-14.55,5.2-14.55,13.51V122h-18.29V68.18h18.19v6.34c3.33-4.36,8.73-7.07,14.65-7.07V85.74z"/>
	<path d="M266.16,95.09c0,16-12.99,28.26-28.89,28.26c-15.79,0-28.89-12.26-28.89-28.26c0-15.79,13.09-28.16,28.89-28.16
		C253.17,66.93,266.16,79.3,266.16,95.09z M226.15,95.4c0,6.23,5.09,11.22,11.12,11.22c6.13,0,11.12-4.99,11.12-11.22
		c0-6.34-4.99-11.22-11.12-11.22C231.24,84.18,226.15,89.06,226.15,95.4z"/>
	<path d="M309.39,118.37c-4.36,2.81-8.94,3.95-13.3,3.95c-14.55,0-26.6-11.74-26.6-27.33c0-15.38,12.05-27.22,26.6-27.22
		c4.37,0,8.94,1.14,13.3,3.95v-3.53h18.29V122h-18.29V118.37z M287.46,95.3c0,6.23,5.09,11.22,11.12,11.22
		c6.13,0,11.01-4.99,11.01-11.22c0-6.34-4.88-11.22-11.01-11.22C292.55,84.08,287.46,88.96,287.46,95.3z"/>
	<path d="M371.74,118.37c-4.37,2.81-8.94,3.95-13.3,3.95c-14.55,0-26.6-11.74-26.6-27.33c0-15.38,12.05-27.22,26.6-27.22
		c4.36,0,8.94,1.14,13.3,3.95V50.82h18.29V122h-18.29V118.37z M371.94,95.3c0-6.34-4.88-11.22-11.01-11.22
		c-6.03,0-11.12,4.88-11.12,11.22c0,6.23,5.09,11.22,11.12,11.22C367.06,106.52,371.94,101.53,371.94,95.3z"/>
</g>
</svg>
